<svg xmlns="http://www.w3.org/2000/svg" xmlns:xlink="http://www.w3.org/1999/xlink" width="1080" zoomAndPan="magnify" viewBox="0 0 810 809.999993" height="1080" preserveAspectRatio="xMidYMid meet" version="1.0"><defs><g/></defs><path stroke-linecap="butt" transform="matrix(2.335135, 0, 0, 2.335135, 28.271023, 150.470345)" fill="none" stroke-linejoin="miter" d="M 122.327364 97.986177 C 115.122546 97.986177 108.427937 96.7048 102.243537 94.145392 C 96.080884 91.562564 90.731219 88.068052 86.196215 83.663528 C 81.661211 79.257331 78.101459 74.103385 75.518632 68.201691 C 72.937477 62.298324 71.646063 56.005191 71.646063 49.322292 C 71.646063 42.659466 72.937477 36.37637 75.518632 30.474676 C 78.101459 24.549562 81.661211 19.395616 86.196215 15.012839 C 90.731219 10.606642 96.080884 7.113803 102.243537 4.530975 C 108.427937 1.948147 115.122546 0.656733 122.327364 0.656733 C 128.816217 0.656733 134.523864 1.645368 139.450307 3.61929 C 144.376749 5.573139 148.488531 7.699288 151.787324 9.99941 C 155.606362 12.75621 158.893445 15.869321 161.650246 19.342086 L 148.336305 32.656027 C 146.362382 30.181933 144.094044 27.967125 141.532963 26.014949 C 139.298081 24.322059 136.574736 22.791432 133.36293 21.424742 C 130.17287 20.036305 126.494348 19.342086 122.327364 19.342086 C 118.140306 19.342086 114.222571 20.123291 110.577506 21.685701 C 106.930767 23.226365 103.752417 25.352514 101.03911 28.065821 C 98.349222 30.777455 96.2214 33.957478 94.65899 37.602544 C 93.09658 41.249282 92.315375 45.155307 92.315375 49.322292 C 92.315375 53.50935 93.09658 57.427084 94.65899 61.07215 C 96.2214 64.718888 98.349222 67.897238 101.03911 70.610546 C 103.752417 73.32218 106.930767 75.460039 110.577506 77.022449 C 114.222571 78.563112 118.140306 79.33428 122.327364 79.33428 C 125.691397 79.33428 128.642244 78.976298 131.181578 78.260332 C 133.720913 77.542695 135.880518 76.697923 137.660394 75.720998 C 139.699556 74.657087 141.479432 73.420876 142.998349 72.00902 L 142.998349 60.682384 L 125.647903 60.682384 L 125.647903 44.666845 L 162.985153 44.666845 L 162.985153 79.985006 C 160.054379 83.370785 156.593323 86.396909 152.600312 89.066723 C 149.214533 91.388591 144.983982 93.46121 139.905313 95.284579 C 134.850063 97.084529 128.99019 97.986177 122.327364 97.986177 Z M 217.641064 97.333779 C 212.845101 97.333779 208.331844 96.445513 204.09962 94.665637 C 199.889143 92.885761 196.200584 90.445123 193.032271 87.34205 C 189.885704 84.21723 187.421646 80.613984 185.643443 76.533987 C 183.863567 72.453989 182.973629 68.049465 182.973629 63.318742 C 182.973629 58.696751 183.863567 54.324011 185.643443 50.20052 C 187.421646 46.077029 189.885704 42.463747 193.032271 39.360673 C 196.200584 36.235853 199.889143 33.783505 204.09962 32.003629 C 208.331844 30.225426 212.845101 29.335488 217.641064 29.335488 C 222.458774 29.335488 226.972031 30.225426 231.182508 32.003629 C 235.41306 33.783505 239.103291 36.235853 242.249858 39.360673 C 245.396424 42.463747 247.858809 46.077029 249.638685 50.20052 C 251.418561 54.324011 252.308499 58.696751 252.308499 63.318742 C 252.308499 68.049465 251.418561 72.453989 249.638685 76.533987 C 247.858809 80.613984 245.396424 84.21723 242.249858 87.34205 C 239.103291 90.445123 235.41306 92.885761 231.182508 94.665637 C 226.972031 96.445513 222.458774 97.333779 217.641064 97.333779 Z M 217.641064 80.667514 C 219.962933 80.667514 222.144284 80.224218 224.183447 79.33428 C 226.222609 78.444342 227.992449 77.249952 229.489619 75.752782 C 231.008536 74.233865 232.191216 72.410496 233.037661 70.284347 C 233.884106 68.136451 234.307328 65.814583 234.307328 63.318742 C 234.307328 60.844647 233.884106 58.544525 233.037661 56.418376 C 232.191216 54.268808 231.008536 52.447111 229.489619 50.948268 C 227.992449 49.429352 226.222609 48.224924 224.183447 47.336659 C 222.144284 46.446721 219.962933 46.001752 217.641064 46.001752 C 215.340942 46.001752 213.159591 46.446721 211.098682 47.336659 C 209.057846 48.224924 207.27797 49.429352 205.759053 50.948268 C 204.261883 52.447111 203.090912 54.268808 202.244467 56.418376 C 201.398023 58.544525 200.9748 60.844647 200.9748 63.318742 C 200.9748 65.814583 201.398023 68.136451 202.244467 70.284347 C 203.090912 72.410496 204.261883 74.233865 205.759053 75.752782 C 207.27797 77.249952 209.057846 78.444342 211.098682 79.33428 C 213.159591 80.224218 215.340942 80.667514 217.641064 80.667514 Z M 217.641064 80.667514 " stroke="#814e9f" stroke-width="19.99995" stroke-opacity="1" stroke-miterlimit="4"/><path stroke-linecap="butt" transform="matrix(2.335135, 0, 0, 2.335135, 28.271023, 150.470345)" fill="none" stroke-linejoin="miter" d="M 12.011852 111.674829 L 53.318693 111.674829 C 58.310375 111.674829 62.823632 112.434287 66.860137 113.954877 C 70.918388 115.452047 74.369407 117.578196 77.211521 120.333323 C 80.053635 123.090124 82.22495 126.398954 83.72212 130.261485 C 85.241037 134.12569 86.000496 138.367951 86.000496 142.989941 C 86.000496 148.327896 85.175797 152.777586 83.526401 156.335666 C 81.877005 159.895418 80.031889 162.694039 77.992726 164.734874 C 75.692604 167.142056 73.02279 169.008918 69.984957 170.332116 L 89.321035 204.999551 L 67.316816 204.999551 L 50.650552 174.336837 L 31.998655 174.336837 L 31.998655 204.999551 L 12.011852 204.999551 Z M 52.667967 155.651484 C 56.40002 155.651484 59.437853 154.480513 61.783141 152.136898 C 64.148502 149.771536 65.331183 146.721993 65.331183 142.989941 C 65.331183 139.257889 64.148502 136.218382 61.783141 133.874767 C 59.437853 131.509406 56.40002 130.326725 52.667967 130.326725 L 31.998655 130.326725 L 31.998655 155.651484 Z M 139.985608 206.334458 C 135.189645 206.334458 130.674715 205.44452 126.444164 203.664644 C 122.233686 201.886441 118.545127 199.444129 115.376814 196.341056 C 112.230248 193.216236 109.76619 189.614664 107.986314 185.534666 C 106.208111 181.454668 105.318173 177.050144 105.318173 172.317748 C 105.318173 167.695758 106.208111 163.323017 107.986314 159.201199 C 109.76619 155.077708 112.208501 151.464426 115.311574 148.361353 C 118.436394 145.236533 122.037967 142.784185 126.117965 141.004309 C 130.219709 139.224432 134.624233 138.334494 139.33321 138.334494 C 143.869886 138.334494 148.112147 139.202686 152.061665 140.939069 C 156.011184 142.675452 159.450493 145.007357 162.379593 147.93813 C 165.332113 150.867231 167.664019 154.31825 169.378655 158.289514 C 171.115038 162.239033 171.983229 166.481294 171.983229 171.016297 C 171.983229 172.254181 171.939736 173.338166 171.852749 174.271597 C 171.765763 175.205028 171.678777 176.029726 171.59179 176.745691 C 171.504804 177.635629 171.417817 178.383378 171.332504 178.992283 L 124.001853 178.992283 C 124.978777 182.030117 126.867386 184.676511 129.666007 186.934813 C 132.466301 189.191441 136.350579 190.318919 141.318842 190.318919 C 144.162629 190.318919 146.646761 189.972646 148.774582 189.278428 C 150.922478 188.56079 152.755884 187.716018 154.274801 186.739093 C 155.945944 185.675182 157.41133 184.427262 158.669288 182.995331 L 167.978508 195.658547 C 166.026332 197.610723 163.627514 199.390599 160.7854 200.996503 C 158.398292 202.341446 155.469191 203.56762 151.996426 204.675025 C 148.52366 205.780756 144.520612 206.334458 139.985608 206.334458 Z M 153.331333 165.678342 C 152.354408 162.640508 150.596279 159.992441 148.056944 157.735812 C 145.519283 155.479184 142.382753 154.350033 138.650701 154.350033 C 134.918649 154.350033 131.782119 155.479184 129.242785 157.735812 C 126.725197 159.992441 124.978777 162.640508 124.001853 165.678342 Z M 141.352298 110.99232 L 160.004195 110.99232 L 145.323563 131.010907 L 130.674715 131.010907 Z M 213.338582 206.334458 C 208.803578 206.334458 204.80053 205.715516 201.327764 204.479305 C 197.854999 203.221348 194.925898 201.842947 192.53879 200.345777 C 189.696676 198.652888 187.287821 196.645509 185.312226 194.32364 L 195.989809 182.995331 C 197.334753 184.427262 198.885453 185.675182 200.643583 186.739093 C 202.162499 187.716018 203.985869 188.56079 206.112018 189.278428 C 208.261586 189.972646 210.670441 190.318919 213.338582 190.318919 C 216.354669 190.318919 218.438997 189.88566 219.588222 189.017468 C 220.739119 188.12753 221.314568 187.010089 221.314568 185.665145 C 221.314568 184.427262 220.48987 183.38677 218.840473 182.540325 C 217.212823 181.693881 215.150241 180.869182 212.656073 180.066231 C 210.160232 179.263279 207.490418 178.329848 204.648304 177.265937 C 201.804517 176.203699 199.136376 174.868792 196.640534 173.262889 C 194.16644 171.656986 192.105531 169.659644 190.456134 167.272535 C 188.806738 164.863681 187.98204 161.88105 187.98204 158.321298 C 187.98204 155.673231 188.557488 153.145606 189.706713 150.736751 C 190.879357 148.327896 192.548827 146.190038 194.720142 144.324848 C 196.911531 142.457985 199.624838 140.992599 202.856718 139.930361 C 206.112018 138.86645 209.823996 138.334494 213.989307 138.334494 C 218.178038 138.334494 221.846523 138.86645 224.99309 139.930361 C 228.139656 140.992599 230.786051 142.153533 232.935619 143.413163 C 235.408041 144.910333 237.535863 146.54802 239.315739 148.327896 L 228.669939 159.656205 C 227.585954 158.679281 226.294541 157.789343 224.79737 156.986391 C 223.559487 156.292172 222.030533 155.68494 220.207164 155.164694 C 218.383794 154.621029 216.312848 154.350033 213.989307 154.350033 C 211.689186 154.350033 209.996296 154.773256 208.912311 155.6197 C 207.8484 156.444399 207.316445 157.344374 207.316445 158.321298 C 207.316445 159.580928 208.141143 160.633129 209.79054 161.479574 C 211.439936 162.326019 213.502518 163.150717 215.97494 163.953669 C 218.470781 164.734874 221.140595 165.666632 223.982709 166.75229 C 226.826496 167.816201 229.494637 169.149435 231.990478 170.755338 C 234.48632 172.339495 236.548902 174.336837 238.174879 176.745691 C 239.824275 179.1328 240.648973 182.105393 240.648973 185.665145 C 240.648973 188.50726 240.075197 191.177074 238.9243 193.672915 C 237.773403 196.167083 236.038693 198.348435 233.716824 200.215298 C 231.41503 202.080487 228.572916 203.56762 225.187136 204.675025 C 221.80303 205.780756 217.853512 206.334458 213.338582 206.334458 Z M 275.982189 206.334458 C 272.966102 206.334458 270.232721 205.867742 267.780373 204.934311 C 265.349772 204.002553 263.265443 202.689392 261.52906 200.996503 C 259.79435 199.303613 258.437697 197.328017 257.460772 195.071389 C 256.483848 192.793014 255.995386 190.330629 255.995386 187.682561 C 255.995386 182.344606 257.699985 177.787856 261.107511 174.010638 C 264.53511 170.235092 269.277543 167.804491 275.331464 166.720506 L 296.002449 163.008528 C 295.632757 160.68666 294.493569 158.669244 292.583213 156.954607 C 290.67453 155.218225 288.026463 154.350033 284.640684 154.350033 C 282.340562 154.350033 280.279653 154.729762 278.456284 155.489221 C 276.632914 156.226933 275.103961 157.085087 273.866077 158.060339 C 272.34716 159.12425 271.055746 160.328677 269.993508 161.673621 L 259.315925 150.99771 C 261.182787 148.697589 263.451126 146.61326 266.119267 144.74807 C 268.441135 143.142167 271.241429 141.67678 274.518475 140.353583 C 277.815595 139.006966 281.636307 138.334494 285.975591 138.334494 C 290.164322 138.334494 293.961614 139.006966 297.369139 140.353583 C 300.796739 141.67678 303.759296 143.521896 306.255137 145.887258 C 308.750978 148.230873 310.661334 150.986001 311.984531 154.154314 C 313.329475 157.30088 314.001947 160.698369 314.001947 164.343435 L 314.001947 204.999551 L 296.002449 204.999551 L 296.002449 196.991781 L 295.318267 196.991781 C 293.908083 198.771657 292.268724 200.334067 290.403534 201.679011 C 288.797631 202.916895 286.768505 204.002553 284.316157 204.934311 C 281.885556 205.867742 279.107009 206.334458 275.982189 206.334458 Z M 282.004326 191.653826 C 285.997337 191.653826 289.327914 190.308882 291.997728 187.617322 C 294.667542 184.905687 296.002449 181.367682 296.002449 177.006651 L 296.002449 175.671744 L 281.321817 178.339885 C 279.020023 178.774817 277.220073 179.577769 275.916949 180.74874 C 274.637245 181.899637 273.996557 183.32153 273.996557 185.012747 C 273.996557 187.053583 274.658992 188.669523 275.982189 189.863913 C 277.328806 191.056631 279.336185 191.653826 282.004326 191.653826 Z M 282.004326 191.653826 " stroke="#814e9f" stroke-width="19.99995" stroke-opacity="1" stroke-miterlimit="4"/><g fill="#ffffff" fill-opacity="1"><g transform="translate(181.5872, 374.64326)"><g><path d="M 132.328125 4.671875 C 115.515625 4.671875 99.894531 1.660156 85.46875 -4.359375 C 71.039062 -10.378906 58.53125 -18.523438 47.9375 -28.796875 C 37.351562 -39.066406 29.050781 -51.101562 23.03125 -64.90625 C 17.019531 -78.71875 14.015625 -93.40625 14.015625 -108.96875 C 14.015625 -124.539062 17.019531 -139.226562 23.03125 -153.03125 C 29.050781 -166.832031 37.351562 -178.867188 47.9375 -189.140625 C 58.53125 -199.410156 71.039062 -207.554688 85.46875 -213.578125 C 99.894531 -219.597656 115.515625 -222.609375 132.328125 -222.609375 C 147.472656 -222.609375 160.804688 -220.320312 172.328125 -215.75 C 183.847656 -211.1875 193.445312 -206.207031 201.125 -200.8125 C 210.050781 -194.382812 217.734375 -187.117188 224.171875 -179.015625 L 193.03125 -147.890625 C 188.46875 -153.703125 183.175781 -158.890625 177.15625 -163.453125 C 171.96875 -167.398438 165.632812 -170.976562 158.15625 -174.1875 C 150.6875 -177.40625 142.078125 -179.015625 132.328125 -179.015625 C 122.566406 -179.015625 113.429688 -177.195312 104.921875 -173.5625 C 96.410156 -169.9375 88.988281 -164.957031 82.65625 -158.625 C 76.332031 -152.300781 71.351562 -144.882812 67.71875 -136.375 C 64.082031 -127.863281 62.265625 -118.726562 62.265625 -108.96875 C 62.265625 -99.21875 64.082031 -90.085938 67.71875 -81.578125 C 71.351562 -73.066406 76.332031 -65.644531 82.65625 -59.3125 C 88.988281 -52.976562 96.410156 -47.992188 104.921875 -44.359375 C 113.429688 -40.734375 122.566406 -38.921875 132.328125 -38.921875 C 140.210938 -38.921875 147.113281 -39.75 153.03125 -41.40625 C 158.945312 -43.070312 163.976562 -45.046875 168.125 -47.328125 C 172.894531 -49.816406 177.046875 -52.722656 180.578125 -56.046875 L 180.578125 -82.5 L 140.109375 -82.5 L 140.109375 -119.875 L 227.28125 -119.875 L 227.28125 -37.359375 C 220.425781 -29.472656 212.332031 -22.414062 203 -16.1875 C 195.113281 -10.789062 185.253906 -5.960938 173.421875 -1.703125 C 161.585938 2.546875 147.890625 4.671875 132.328125 4.671875 Z M 132.328125 4.671875 "/></g></g></g><g fill="#ffffff" fill-opacity="1"><g transform="translate(444.669469, 374.64326)"><g><path d="M 91.84375 3.109375 C 80.632812 3.109375 70.097656 1.035156 60.234375 -3.109375 C 50.378906 -7.265625 41.765625 -12.972656 34.390625 -20.234375 C 27.023438 -27.503906 21.265625 -35.910156 17.109375 -45.453125 C 12.960938 -55.003906 10.890625 -65.28125 10.890625 -76.28125 C 10.890625 -87.070312 12.960938 -97.289062 17.109375 -106.9375 C 21.265625 -116.59375 27.023438 -125.050781 34.390625 -132.3125 C 41.765625 -139.582031 50.378906 -145.289062 60.234375 -149.4375 C 70.097656 -153.59375 80.632812 -155.671875 91.84375 -155.671875 C 103.050781 -155.671875 113.582031 -153.59375 123.4375 -149.4375 C 133.300781 -145.289062 141.914062 -139.582031 149.28125 -132.3125 C 156.65625 -125.050781 162.414062 -116.59375 166.5625 -106.9375 C 170.71875 -97.289062 172.796875 -87.070312 172.796875 -76.28125 C 172.796875 -65.28125 170.71875 -55.003906 166.5625 -45.453125 C 162.414062 -35.910156 156.65625 -27.503906 149.28125 -20.234375 C 141.914062 -12.972656 133.300781 -7.265625 123.4375 -3.109375 C 113.582031 1.035156 103.050781 3.109375 91.84375 3.109375 Z M 91.84375 -35.796875 C 97.238281 -35.796875 102.320312 -36.832031 107.09375 -38.90625 C 111.875 -40.988281 116.023438 -43.789062 119.546875 -47.3125 C 123.078125 -50.84375 125.828125 -55.097656 127.796875 -60.078125 C 129.773438 -65.066406 130.765625 -70.46875 130.765625 -76.28125 C 130.765625 -82.09375 129.773438 -87.488281 127.796875 -92.46875 C 125.828125 -97.445312 123.078125 -101.703125 119.546875 -105.234375 C 116.023438 -108.765625 111.875 -111.566406 107.09375 -113.640625 C 102.320312 -115.710938 97.238281 -116.75 91.84375 -116.75 C 86.445312 -116.75 81.359375 -115.710938 76.578125 -113.640625 C 71.804688 -111.566406 67.65625 -108.765625 64.125 -105.234375 C 60.601562 -101.703125 57.851562 -97.445312 55.875 -92.46875 C 53.90625 -87.488281 52.921875 -82.09375 52.921875 -76.28125 C 52.921875 -70.46875 53.90625 -65.066406 55.875 -60.078125 C 57.851562 -55.097656 60.601562 -50.84375 64.125 -47.3125 C 67.65625 -43.789062 71.804688 -40.988281 76.578125 -38.90625 C 81.359375 -36.832031 86.445312 -35.796875 91.84375 -35.796875 Z M 91.84375 -35.796875 "/></g></g></g><g fill="#ffffff" fill-opacity="1"><g transform="translate(28.271023, 629.172924)"><g><path d="M 28.015625 -217.9375 L 124.53125 -217.9375 C 136.15625 -217.9375 146.691406 -216.171875 156.140625 -212.640625 C 165.585938 -209.117188 173.628906 -204.140625 180.265625 -197.703125 C 186.910156 -191.265625 191.992188 -183.53125 195.515625 -174.5 C 199.046875 -165.476562 200.8125 -155.570312 200.8125 -144.78125 C 200.8125 -132.320312 198.890625 -121.941406 195.046875 -113.640625 C 191.210938 -105.335938 186.910156 -98.800781 182.140625 -94.03125 C 176.742188 -88.425781 170.515625 -84.066406 163.453125 -80.953125 L 208.59375 0 L 157.234375 0 L 118.3125 -71.609375 L 74.71875 -71.609375 L 74.71875 0 L 28.015625 0 Z M 122.984375 -115.203125 C 131.703125 -115.203125 138.8125 -117.953125 144.3125 -123.453125 C 149.8125 -128.953125 152.5625 -136.0625 152.5625 -144.78125 C 152.5625 -153.488281 149.8125 -160.59375 144.3125 -166.09375 C 138.8125 -171.601562 131.703125 -174.359375 122.984375 -174.359375 L 74.71875 -174.359375 L 74.71875 -115.203125 Z M 122.984375 -115.203125 "/></g></g></g><g fill="#ffffff" fill-opacity="1"><g transform="translate(263.332747, 629.172924)"><g><path d="M 91.84375 3.109375 C 80.632812 3.109375 70.097656 1.035156 60.234375 -3.109375 C 50.378906 -7.265625 41.765625 -12.972656 34.390625 -20.234375 C 27.023438 -27.503906 21.265625 -35.910156 17.109375 -45.453125 C 12.960938 -55.003906 10.890625 -65.28125 10.890625 -76.28125 C 10.890625 -87.070312 12.960938 -97.289062 17.109375 -106.9375 C 21.265625 -116.59375 26.972656 -125.050781 34.234375 -132.3125 C 41.503906 -139.582031 49.910156 -145.289062 59.453125 -149.4375 C 69.003906 -153.59375 79.285156 -155.671875 90.296875 -155.671875 C 100.878906 -155.671875 110.785156 -153.644531 120.015625 -149.59375 C 129.253906 -145.550781 137.296875 -140.101562 144.140625 -133.25 C 150.992188 -126.40625 156.441406 -118.363281 160.484375 -109.125 C 164.535156 -99.882812 166.5625 -89.972656 166.5625 -79.390625 C 166.5625 -76.484375 166.457031 -73.941406 166.25 -71.765625 C 166.050781 -69.585938 165.847656 -67.664062 165.640625 -66 C 165.429688 -63.925781 165.222656 -62.164062 165.015625 -60.71875 L 54.484375 -60.71875 C 56.765625 -53.65625 61.175781 -47.476562 67.71875 -42.1875 C 74.257812 -36.894531 83.335938 -34.25 94.953125 -34.25 C 101.597656 -34.25 107.410156 -35.078125 112.390625 -36.734375 C 117.378906 -38.398438 121.632812 -40.375 125.15625 -42.65625 C 129.101562 -45.144531 132.53125 -48.050781 135.4375 -51.375 L 157.234375 -21.796875 C 152.660156 -17.222656 147.054688 -13.070312 140.421875 -9.34375 C 134.816406 -6.226562 127.960938 -3.375 119.859375 -0.78125 C 111.765625 1.8125 102.425781 3.109375 91.84375 3.109375 Z M 122.984375 -91.84375 C 120.703125 -98.90625 116.601562 -105.082031 110.6875 -110.375 C 104.769531 -115.664062 97.453125 -118.3125 88.734375 -118.3125 C 80.015625 -118.3125 72.695312 -115.664062 66.78125 -110.375 C 60.863281 -105.082031 56.765625 -98.90625 54.484375 -91.84375 Z M 94.96875 -219.5 L 138.546875 -219.5 L 104.3125 -172.796875 L 70.0625 -172.796875 Z M 94.96875 -219.5 "/></g></g></g><g fill="#ffffff" fill-opacity="1"><g transform="translate(456.363652, 629.172924)"><g><path d="M 70.046875 3.109375 C 59.460938 3.109375 50.125 1.65625 42.03125 -1.25 C 33.9375 -4.15625 27.085938 -7.367188 21.484375 -10.890625 C 14.835938 -14.835938 9.234375 -19.507812 4.671875 -24.90625 L 29.578125 -51.375 C 32.691406 -48.050781 36.320312 -45.144531 40.46875 -42.65625 C 44 -40.375 48.253906 -38.398438 53.234375 -36.734375 C 58.222656 -35.078125 63.828125 -34.25 70.046875 -34.25 C 77.109375 -34.25 81.988281 -35.285156 84.6875 -37.359375 C 87.382812 -39.429688 88.734375 -42.023438 88.734375 -45.140625 C 88.734375 -48.046875 86.8125 -50.484375 82.96875 -52.453125 C 79.132812 -54.429688 74.3125 -56.351562 68.5 -58.21875 C 62.6875 -60.082031 56.457031 -62.257812 49.8125 -64.75 C 43.175781 -67.25 36.953125 -70.363281 31.140625 -74.09375 C 25.328125 -77.832031 20.5 -82.503906 16.65625 -88.109375 C 12.8125 -93.710938 10.890625 -100.664062 10.890625 -108.96875 C 10.890625 -115.195312 12.238281 -121.113281 14.9375 -126.71875 C 17.632812 -132.320312 21.523438 -137.300781 26.609375 -141.65625 C 31.703125 -146.019531 38.035156 -149.445312 45.609375 -151.9375 C 53.179688 -154.425781 61.847656 -155.671875 71.609375 -155.671875 C 81.367188 -155.671875 89.929688 -154.425781 97.296875 -151.9375 C 104.660156 -149.445312 110.832031 -146.75 115.8125 -143.84375 C 121.625 -140.3125 126.609375 -136.472656 130.765625 -132.328125 L 105.859375 -105.859375 C 103.367188 -108.140625 100.359375 -110.210938 96.828125 -112.078125 C 93.921875 -113.742188 90.335938 -115.195312 86.078125 -116.4375 C 81.828125 -117.6875 77.003906 -118.3125 71.609375 -118.3125 C 66.210938 -118.3125 62.269531 -117.320312 59.78125 -115.34375 C 57.289062 -113.375 56.046875 -111.25 56.046875 -108.96875 C 56.046875 -106.0625 57.960938 -103.625 61.796875 -101.65625 C 65.640625 -99.6875 70.46875 -97.765625 76.28125 -95.890625 C 82.09375 -94.023438 88.316406 -91.847656 94.953125 -89.359375 C 101.597656 -86.867188 107.828125 -83.753906 113.640625 -80.015625 C 119.453125 -76.273438 124.273438 -71.601562 128.109375 -66 C 131.953125 -60.394531 133.875 -53.441406 133.875 -45.140625 C 133.875 -38.503906 132.523438 -32.28125 129.828125 -26.46875 C 127.128906 -20.65625 123.082031 -15.566406 117.6875 -11.203125 C 112.289062 -6.847656 105.648438 -3.375 97.765625 -0.78125 C 89.878906 1.8125 80.640625 3.109375 70.046875 3.109375 Z M 70.046875 3.109375 "/></g></g></g><g fill="#ffffff" fill-opacity="1"><g transform="translate(613.590581, 629.172924)"><g><path d="M 59.15625 3.109375 C 52.09375 3.109375 45.707031 2.019531 40 -0.15625 C 34.300781 -2.332031 29.425781 -5.390625 25.375 -9.328125 C 21.320312 -13.273438 18.15625 -17.894531 15.875 -23.1875 C 13.59375 -28.488281 12.453125 -34.25 12.453125 -40.46875 C 12.453125 -52.925781 16.445312 -63.566406 24.4375 -72.390625 C 32.425781 -81.210938 43.476562 -86.867188 57.59375 -89.359375 L 105.859375 -98.078125 C 105.023438 -103.472656 102.375 -108.191406 97.90625 -112.234375 C 93.445312 -116.285156 87.273438 -118.3125 79.390625 -118.3125 C 73.992188 -118.3125 69.164062 -117.425781 64.90625 -115.65625 C 60.65625 -113.894531 57.078125 -111.875 54.171875 -109.59375 C 50.640625 -107.101562 47.628906 -104.300781 45.140625 -101.1875 L 20.234375 -126.09375 C 24.597656 -131.488281 29.890625 -136.367188 36.109375 -140.734375 C 41.503906 -144.460938 48.039062 -147.882812 55.71875 -151 C 63.40625 -154.113281 72.332031 -155.671875 82.5 -155.671875 C 92.257812 -155.671875 101.132812 -154.113281 109.125 -151 C 117.113281 -147.882812 124.015625 -143.578125 129.828125 -138.078125 C 135.640625 -132.578125 140.101562 -126.140625 143.21875 -118.765625 C 146.332031 -111.398438 147.890625 -103.460938 147.890625 -94.953125 L 147.890625 0 L 105.859375 0 L 105.859375 -18.6875 L 104.296875 -18.6875 C 100.972656 -14.53125 97.132812 -10.894531 92.78125 -7.78125 C 89.039062 -4.875 84.316406 -2.332031 78.609375 -0.15625 C 72.898438 2.019531 66.414062 3.109375 59.15625 3.109375 Z M 73.171875 -31.140625 C 82.503906 -31.140625 90.285156 -34.300781 96.515625 -40.625 C 102.742188 -46.957031 105.859375 -55.207031 105.859375 -65.375 L 105.859375 -68.5 L 71.609375 -62.265625 C 66.210938 -61.234375 62.007812 -59.363281 59 -56.65625 C 55.988281 -53.957031 54.484375 -50.640625 54.484375 -46.703125 C 54.484375 -41.929688 56.039062 -38.144531 59.15625 -35.34375 C 62.269531 -32.539062 66.941406 -31.140625 73.171875 -31.140625 Z M 73.171875 -31.140625 "/></g></g></g></svg>