<?xml version="1.0" encoding="utf-8"?>
<!-- Uploaded to: SVG Repo, www.svgrepo.com, Generator: SVG Repo Mixer Tools -->
<svg width="800px" height="800px" viewBox="-9.84 0 337.575 337.575" xmlns="http://www.w3.org/2000/svg"><defs><style>.a{fill:#ffffff;}.b{fill:#957f6e;}.c{fill:#211715;}.d{fill:#f4b867;}.e{fill:#b3b3b3;}</style></defs><path class="a" d="M176.135,88.744a8.03,8.03,0,0,1,6.425-1.88,7.585,7.585,0,0,1,5.452,3.625,10.714,10.714,0,0,1,1.122,4.313,32.129,32.129,0,0,1-3.275,17.029,20.412,20.412,0,0,1-5.28,6.929,13.531,13.531,0,0,1-6.3,2.838l-1.078.167c-.517,1.933-1.1,3.562-1.382,4.427-1.807,4.905-11.806,21.714-24.462,28.2a79.579,79.579,0,0,0,1.178,10.919c.7,3.99.49,7.56,6.04,9.56.37.14,6.61,2.57,7.18,2.81,0,0-.234,31.362-40.275,31.362S86.36,176.225,86.36,176.225c1.07-.36,3.65-1.21,4.02-1.35,5.55-2,5.33-5.57,6.03-9.56A78.547,78.547,0,0,0,97.6,154.522a47.574,47.574,0,0,1-14.916-12.285A54.623,54.623,0,0,1,72.27,121.914l-2.053-.316a13.531,13.531,0,0,1-6.3-2.838,20.412,20.412,0,0,1-5.28-6.929A32.129,32.129,0,0,1,55.367,94.8a10.7,10.7,0,0,1,1.122-4.313,7.585,7.585,0,0,1,5.452-3.625,8.03,8.03,0,0,1,6.425,1.88S58.374,40.6,122.818,40.6,176.135,88.744,176.135,88.744Z"/><path class="b" d="M78.109,164.221c7.535-1.146,13.934-4.792,16.774-9.052l.987-1.584a48.965,48.965,0,0,1-13.188-11.348,54.622,54.622,0,0,1-10.413-20.326l-2.052-.313a13.531,13.531,0,0,1-6.3-2.838,16.647,16.647,0,0,1-2.187-2.149,26.753,26.753,0,0,0-2.707,8.946,43.777,43.777,0,0,0-.3,5.964q.01.607.044,1.218c.237,4.349,1.253,8.78,1.468,13.112.218,4.72-1.011,9.367-5.513,10.9-.178.06-.214.636-.209.783a2.051,2.051,0,0,0,.362,1.009,6.964,6.964,0,0,0,2.308,2.023C62.207,163.64,69.932,165.465,78.109,164.221Z"/><path class="b" d="M184.608,53.3c-.2-1.184-.411-2.281-.613-3.267C178.411,22.654,150.831.917,121.907,2.506,92.984.917,65.4,22.654,59.819,50.037c-1.513,7.386-1.332,20.022.044,25.918L62.632,86.8a7.971,7.971,0,0,1,5.734,1.943c11.431-7.929,30.821-21.7,40.861-30.338-.826,5.125-3.76,13.842-.064,12.946,15.434-3.574,30.226-10.781,39.17-22.025,1.885,6.639,5,15.608,7.289,19.527,3.239,5.546,12.624,18.025,20.513,19.89a8.03,8.03,0,0,1,6.425-1.88,7.692,7.692,0,0,1,1,.219C187.581,77.774,186.227,62.742,184.608,53.3Z"/><path class="c" d="M62.146,75.551a49.555,49.555,0,0,1-.969-9.647A86.538,86.538,0,0,1,61.6,54.129a50.267,50.267,0,0,1,6.938-19.921A61.1,61.1,0,0,1,102.531,7.371a55.018,55.018,0,0,1,10.9-2.274c3.776-.375,7.586-.268,11.372-.273a56.05,56.05,0,0,1,21.757,4.462,60.957,60.957,0,0,1,31.41,30.033,64.565,64.565,0,0,1,5.034,19.406c.919,7.419,1.426,15.283-.176,22.644a28.75,28.75,0,0,1-1.544,4.984,2.415,2.415,0,0,0,1.676,2.953,2.461,2.461,0,0,0,2.952-1.677c3.048-7.3,3-15.861,2.421-23.618-.547-7.275-1.553-14.783-3.994-21.687-5.3-14.992-16.687-27.556-30.694-34.958A63.253,63.253,0,0,0,130.559.315,111.126,111.126,0,0,0,118.647.024a59.8,59.8,0,0,0-12.04,1.32A65.982,65.982,0,0,0,67.379,27.231a58.188,58.188,0,0,0-9.654,21.14,73.617,73.617,0,0,0-.964,23.574,42.116,42.116,0,0,0,.757,4.882c.684,3.011,5.313,1.737,4.628-1.276Z"/><path class="c" d="M146.247,50.771c1.118,3.822,2.359,7.612,3.77,11.336A51,51,0,0,0,154,70.81a64.718,64.718,0,0,0,12.295,14.84c2.673,2.332,5.712,4.534,9.206,5.409,3,.749,4.276-3.878,1.276-4.629-5.359-1.341-9.964-6.6-13.458-10.836A50.272,50.272,0,0,1,155,61.742c-1.562-4.014-2.91-8.114-4.119-12.247-.865-2.959-5.5-1.7-4.629,1.276Z"/><path class="c" d="M146.791,47.434A55.5,55.5,0,0,1,127.78,62.282a80.964,80.964,0,0,1-11.7,4.692q-3.142,1-6.349,1.777c-.263.064-.541.116-.8.193-.393.116-.45-.081-.128.067-.145-.067-.325-.195.177.049a2.232,2.232,0,0,1,.6.352.628.628,0,0,1,.23.335c0-.069-.045-.458-.047-.133,0,.365-.01-.229-.01-.3-.024-3.308,1.225-6.827,1.8-10.271a2.422,2.422,0,0,0-4.011-2.335C97.454,65.354,86.511,73.039,75.683,80.7q-4.251,3.006-8.528,5.974a2.462,2.462,0,0,0-.861,3.284,2.421,2.421,0,0,0,3.283.861c11.3-7.843,22.532-15.823,33.4-24.268,2.694-2.094,5.361-4.224,7.951-6.446l-4.011-2.335c-.611,3.673-1.891,7.34-1.969,11.085a4.968,4.968,0,0,0,1.576,4.229c1.752,1.337,3.98.439,5.883-.055A82.019,82.019,0,0,0,138.72,61.4a53.671,53.671,0,0,0,11.465-10.571,2.475,2.475,0,0,0,0-3.394,2.417,2.417,0,0,0-3.394,0Z"/><path class="c" d="M59.655,115.4c-3.1,6.137-3.809,13.16-3.065,19.933.4,3.622,1.151,7.222,1.261,10.872.068,2.245-.122,4.884-1.595,6.71-.774.96-1.729,1.163-2.74,1.754-1.644.961-1.661,3.249-.887,4.764,1.363,2.668,4.739,4.112,7.376,5.181a35.74,35.74,0,0,0,19.6,1.778c6.576-1.182,13.479-4.356,17.349-10.009,1.75-2.556-2.408-4.959-4.144-2.423-3.661,5.347-11.313,7.731-17.462,8.167a31.828,31.828,0,0,1-11.189-1.136,24.2,24.2,0,0,1-4.274-1.665,15.577,15.577,0,0,1-2.138-1.251c-.231-.17-.47-.492-.706-.625-.3-.17-.023-.268-.115.057l-.617,1.059.11-.128-1.059.618c7.673-2.774,7.7-11.145,6.8-17.973-1.04-7.83-2.064-15.921,1.638-23.26,1.388-2.751-2.751-5.184-4.144-2.423Z"/><path class="c" d="M177.832,90.441a5.518,5.518,0,0,1,7.923.949,9.224,9.224,0,0,1,1.066,4.754,28.7,28.7,0,0,1-.341,6.065c-1.211,7.083-4.944,15.719-12.835,17.075a2.419,2.419,0,0,0-1.676,2.952,2.456,2.456,0,0,0,2.953,1.676c8.17-1.4,13.019-9.12,15.255-16.488a33.914,33.914,0,0,0,1.407-11.951c-.256-3.959-1.454-7.683-5.1-9.744a10.537,10.537,0,0,0-12.042,1.318,2.421,2.421,0,0,0,0,3.394,2.448,2.448,0,0,0,3.394,0Z"/><path class="c" d="M171.8,115.62a26.975,26.975,0,0,1-1.276,6.8c-.255.858-.537,1.707-.821,2.555-.077.229-.151.46-.235.687-.066.179-.365.846-.056.156a53.835,53.835,0,0,1-3.583,6.565,63.959,63.959,0,0,1-14.278,16.468,27.2,27.2,0,0,1-10.587,5.358c-3.009.692-1.736,5.321,1.276,4.629,8.046-1.85,14.78-7.653,20.082-13.725a69.309,69.309,0,0,0,11.052-16.461A35.143,35.143,0,0,0,176.6,115.62c.1-3.09-4.7-3.086-4.8,0Z"/><path class="c" d="M70.063,87.047a10.5,10.5,0,0,0-10.613-1.98c-3.931,1.551-5.9,4.858-6.4,8.928a32.942,32.942,0,0,0,5.766,22.774,17.219,17.219,0,0,0,10.759,7.143,2.471,2.471,0,0,0,2.953-1.676,2.42,2.42,0,0,0-1.677-2.952c-7.889-1.355-11.623-9.993-12.834-17.075a28.624,28.624,0,0,1-.35-5.841c.06-1.651.133-3.553,1.075-4.978a5.514,5.514,0,0,1,7.923-.949,2.461,2.461,0,0,0,3.394,0,2.421,2.421,0,0,0,0-3.394Z"/><path class="c" d="M68.226,114.844c2.923,16.865,12.063,33.37,27.689,41.509a37.5,37.5,0,0,0,13.559,4.056,2.415,2.415,0,0,0,2.4-2.4,2.454,2.454,0,0,0-2.4-2.4c-16.111-1.67-28.665-16.118-33.725-30.634a71.893,71.893,0,0,1-2.894-11.407,2.42,2.42,0,0,0-2.952-1.676,2.455,2.455,0,0,0-1.677,2.952Z"/><path class="c" d="M87,178.539a44.7,44.7,0,0,0,6-2.195,9.5,9.5,0,0,0,4.694-5.28,32.69,32.69,0,0,0,1.17-5.94A85.26,85.26,0,0,0,100,154.515c.128-3.089-4.673-3.083-4.8,0a74.48,74.48,0,0,1-.892,8.919,47.181,47.181,0,0,1-1.026,5.712c-.054.18-.115.358-.176.536-.085.248.133-.24-.059.151-.1.2-.2.4-.324.6-.011.019-.422.582-.166.268a5.219,5.219,0,0,1-2.118,1.573,42.708,42.708,0,0,1-4.718,1.64,2.457,2.457,0,0,0-1.676,2.953A2.425,2.425,0,0,0,87,178.539Z"/><path class="c" d="M144.96,154.4a116.659,116.659,0,0,0,1.474,12.871c.4,2.644.97,5.231,2.92,7.207,1.74,1.764,4.1,2.524,6.352,3.4,1.806.7,3.625,1.382,5.415,2.125a2.415,2.415,0,0,0,2.953-1.676,2.462,2.462,0,0,0-1.676-2.953c-1.584-.656-3.192-1.258-4.788-1.88-1.546-.6-3.549-1.182-4.671-2.226a4.1,4.1,0,0,1-1.255-2.075,24.887,24.887,0,0,1-.66-3.459A100.784,100.784,0,0,1,149.76,154.4c-.12-3.079-4.92-3.095-4.8,0Z"/><path class="a" d="M89.188,335.259c1.36-41.755-1.458-116-2.979-148.167a48.843,48.843,0,0,0,37.312,17.392c13.845-.186,27.785-7.051,36.882-18.4-1.506,31.605-4.4,106.977-3.025,149.172"/><path class="d" d="M89.188,335.259c1.594-48.964-2.556-142.605-3.612-160.693-15.035,5.965-25.739,12.129-39.211,20.955-7.154,4.687-14.244,9.959-18.671,17.279a65.418,65.418,0,0,0-4.949,11.091C11.759,253.3,7.411,301.569,2.354,334.4"/><path class="c" d="M45.261,253.126a118.281,118.281,0,0,0,1.768,18.2c.474,2.966.989,5.925,1.468,8.89a56.446,56.446,0,0,1,1.018,8.209c.112,8.939-.471,17.875-.812,26.8-.244,6.388-.393,12.778-.4,19.171,0,3.089,4.8,3.093,4.8,0,.007-10.576.5-21.13.923-31.695.172-4.277.314-8.557.3-12.838-.022-5.635-1.252-11.243-2.174-16.789a124.306,124.306,0,0,1-2.092-19.953c-.01-3.088-4.81-3.094-4.8,0Z"/><path class="c" d="M83.185,174.726c.357,6.17.637,12.345.913,18.52q.674,15.081,1.213,30.169.665,18.381,1.135,36.769c.316,12.577.556,25.157.656,37.739.089,11.242.083,22.489-.209,33.729q-.047,1.8-.105,3.607c-.1,3.089,4.7,3.086,4.8,0,.353-10.943.4-21.9.343-32.844-.063-12.5-.277-25.009-.57-37.511q-.437-18.6-1.1-37.2-.546-15.628-1.225-31.251c-.294-6.756-.6-13.513-.971-20.265q-.04-.732-.083-1.464c-.178-3.071-4.979-3.091-4.8,0Z"/><path class="c" d="M84.519,188.8a51.683,51.683,0,0,0,29.533,17.232,49.271,49.271,0,0,0,32.993-5.589A51.976,51.976,0,0,0,162.1,187.79a2.474,2.474,0,0,0,0-3.395,2.418,2.418,0,0,0-3.394,0,47.824,47.824,0,0,1-26.63,16.686,44.038,44.038,0,0,1-30.145-4.361A48.005,48.005,0,0,1,87.913,185.4a2.419,2.419,0,0,0-3.394,0,2.45,2.45,0,0,0,0,3.394Z"/><path class="c" d="M84.558,172.411a213.153,213.153,0,0,0-36.366,19.063c-5.708,3.677-11.463,7.448-16.3,12.253a41.319,41.319,0,0,0-6.268,7.861,60.489,60.489,0,0,0-4.557,9.977,211.787,211.787,0,0,0-9.2,33.688c-2.512,12.576-4.424,25.266-6.2,37.964C3.777,306.73,2.113,320.276.04,333.763a2.476,2.476,0,0,0,1.676,2.952,2.419,2.419,0,0,0,2.953-1.676c3.723-24.225,6.249-48.626,10.712-72.738a246.881,246.881,0,0,1,8.278-33.819c2.044-6.075,4.222-12.417,8.2-17.534,3.906-5.03,9.083-8.927,14.338-12.44,12.543-8.385,25.61-15.862,39.641-21.468a2.474,2.474,0,0,0,1.676-2.952,2.417,2.417,0,0,0-2.952-1.677Z"/><path class="a" d="M266.069,234.037c.48-1.517,2.9-9.481,4.886-13.509a5.411,5.411,0,0,1,2.832-2.131c6-2.2,16.805-10.847,22.279-19.163a5.792,5.792,0,0,0,2.863-.6,53.015,53.015,0,0,0,5.819-4.022,5.3,5.3,0,0,0,1.864-3.029,5.617,5.617,0,0,0-.322-2.918,3.56,3.56,0,0,0-1.548-1.632l.12-.054a8.527,8.527,0,0,0,2.925-2.661l2.992-3.728a19.282,19.282,0,0,0,3.182-4.919,8.111,8.111,0,0,0,.47-1.782,5.841,5.841,0,0,0-.682-3.891,4.164,4.164,0,0,0-4.164-1.943q1.881-1.886,3.588-3.932a9.336,9.336,0,0,0,2.227-3.886,5.033,5.033,0,0,0-5.233-6.064c-2.7.165-4.755,2.387-6.473,4.472l-8.126,5.6-31.854-3.734-3.976-7.028c-1.242-1.267-2.706-2.628-4.479-2.566-2.411.086-3.846,2.652-4.8,4.869-2.573,5.986-4.966,9.892-6.832,16.759a74.549,74.549,0,0,0-2.361,10.563c-.6,5.615,1.7,11.1,2.321,16.716a48.581,48.581,0,0,1-.811,13.353,110.12,110.12,0,0,1-3.08,14.409"/><path class="c" d="M261.435,151.789c-2.1-2.119-4.778-4-7.891-2.962-2.535.846-4.065,3.277-5.09,5.6-2.354,5.329-5.081,10.518-6.752,16.12-1.756,5.891-3.487,12-2.635,18.185.439,3.192,1.314,6.3,1.874,9.466a35.136,35.136,0,0,1,.174,9.754,114.542,114.542,0,0,1-3.732,19c-.837,2.979,3.793,4.251,4.629,1.276a136.255,136.255,0,0,0,3.157-14.882,63.179,63.179,0,0,0,1-9.7,41.993,41.993,0,0,0-1.1-9.212,50.5,50.5,0,0,1-1.487-8.6,28.744,28.744,0,0,1,1.138-8.037,81.767,81.767,0,0,1,5.254-15.2c1.169-2.5,2.137-5.2,3.54-7.58.376-.637.956-1.6,1.744-1.7,1.048-.128,2.142,1.219,2.78,1.864,2.176,2.2,5.57-1.2,3.394-3.394Z"/><path class="c" d="M305.391,160.34c1.313-1.584,3.367-4.345,5.773-3.678a2.617,2.617,0,0,1,1.9,2.092,4.294,4.294,0,0,1-1.232,3.23,54.93,54.93,0,0,1-14.136,12.5c-2.608,1.642-.2,5.8,2.422,4.145a64.362,64.362,0,0,0,9.692-7.46,60.091,60.091,0,0,0,4.3-4.468,15.718,15.718,0,0,0,3.449-5.289,7.493,7.493,0,0,0-5.61-9.489c-4.209-.808-7.457,2-9.959,5.02a2.467,2.467,0,0,0,0,3.394,2.418,2.418,0,0,0,3.394,0Z"/><path class="c" d="M303.116,188.893a6.439,6.439,0,0,1,.676.373c-.439-.27.127.15.218.216.117.129.1.095-.058-.1a2.44,2.44,0,0,1,.193.327c-.266-.5.012.155.047.3.031.124.106.849.076.318a6.2,6.2,0,0,1,0,.851c.035-.431-.014-.019-.072.177-.04.136-.086.27-.137.4.1-.244.092-.24-.029.013-.119.181-.218.374-.341.553.271-.394-.243.249-.323.324-.117.108-.243.2-.362.307.686-.6.356-.274.179-.139q-.713.541-1.434,1.074a38.355,38.355,0,0,1-3.507,2.4c-.121.07-.246.134-.368.2-.048.026-.326.144-.033.024-.3.121-.607.188-.91.286-.491.159.189.052-.282.05-.153.007-.307.007-.46,0,.257.049.241.044-.047-.013a3.913,3.913,0,0,1-.451-.138l.221.086c-.1-.053-.189-.11-.279-.172q.365.3.057.044a4.954,4.954,0,0,1-.447-.469,2.406,2.406,0,0,0-3.394,0,2.473,2.473,0,0,0,0,3.395,6.3,6.3,0,0,0,6.7,1.754,13.955,13.955,0,0,0,3.986-2.126c1.065-.743,2.111-1.515,3.141-2.305a7.975,7.975,0,0,0,3.367-5.52,6.443,6.443,0,0,0-3.507-6.629,2.457,2.457,0,0,0-3.284.861,2.429,2.429,0,0,0,.861,3.283Z"/><path class="c" d="M293.5,198.759a57.242,57.242,0,0,1-15.141,14.46,36.658,36.658,0,0,1-3.782,2.226,33.313,33.313,0,0,0-3.34,1.537c-2.855,1.763-3.78,5.482-4.853,8.47-.944,2.626-1.786,5.286-2.626,7.947-.932,2.952,3.7,4.216,4.629,1.276.7-2.216,1.4-4.431,2.159-6.626.511-1.473,1.043-2.94,1.627-4.386.459-1.136.777-2.176,1.9-2.773.1-.054.729-.334.36-.179.317-.133.642-.252.96-.386.631-.266,1.253-.55,1.863-.864a38.381,38.381,0,0,0,3.817-2.289,68.749,68.749,0,0,0,8.378-6.685,58.931,58.931,0,0,0,8.2-9.306,2.419,2.419,0,0,0-.861-3.283,2.448,2.448,0,0,0-3.283.861Z"/><path class="d" d="M194.873,334.4c0-20.549-1.473-34.252-1.184-47.409.041-.332.084-.664.127-1,.3.693.455,1.06.455,1.06,1.02,2.386,11.042,17.312,14.957,21.334,5.884,6.043,14.938,11.446,23.088,11.446,7.041,0,11.471-2.746,15.738-8.347s7.222-12.554,10.093-18.983c7.276-16.294,12.384-47.8,15.451-61.615-10.187-3-28.575-8.84-35.938-11.227-2.471,7.07-4.993,14.91-7.608,23.929a173.926,173.926,0,0,0-5.87-19.7,65.418,65.418,0,0,0-4.949-11.091c-4.427-7.32-11.517-12.592-18.671-17.279-13.577-8.895-24.342-15.085-39.564-21.085-1.043,17.762-5.218,111.74-3.62,160.823"/><path class="c" d="M195.518,253.126a113.826,113.826,0,0,1-1.747,17.856c-.482,2.97-1,5.934-1.469,8.906a59.857,59.857,0,0,0-1.038,8.539c-.112,8.939.471,17.875.812,26.8.244,6.388.393,12.778.4,19.171,0,3.088,4.8,3.094,4.8,0-.006-10.576-.5-21.13-.923-31.695-.172-4.277-.314-8.557-.3-12.838.021-5.525,1.26-11.007,2.156-16.446a127.544,127.544,0,0,0,2.109-20.3c.01-3.089-4.79-3.093-4.8,0Z"/><path class="c" d="M161.093,177.04a202.443,202.443,0,0,1,33.731,17.625c5.3,3.381,10.672,6.773,15.324,11.033a40.358,40.358,0,0,1,10.438,15.458,175.453,175.453,0,0,1,6.9,22.053c.742,3,5.373,1.728,4.629-1.276a178.21,178.21,0,0,0-6.255-20.368,61.425,61.425,0,0,0-4.442-9.783,40.828,40.828,0,0,0-6.092-7.763c-4.631-4.68-10.151-8.373-15.652-11.937-5.476-3.548-11.032-6.977-16.764-10.1a191.635,191.635,0,0,0-20.543-9.574,2.417,2.417,0,0,0-2.952,1.677,2.458,2.458,0,0,0,1.676,2.952Z"/><path class="c" d="M225.013,271.891c3.489-14.2,7.313-28.326,11.817-42.24q1.519-4.692,3.145-9.348l-2.953,1.676c11.937,3.869,23.9,7.683,35.938,11.227l-1.677-2.952c-2.024,9.15-3.659,18.384-5.637,27.545-2.215,10.261-4.57,20.633-8.326,30.458a124.245,124.245,0,0,1-7.428,15.975c-2.6,4.64-5.923,9.854-11.023,12.03-4.889,2.086-10.595,1.216-15.344-.806a37.809,37.809,0,0,1-13.306-9.53,109.106,109.106,0,0,1-8-10.78c-1.291-1.888-2.561-3.792-3.785-5.724a27.768,27.768,0,0,1-2.091-3.577,2.417,2.417,0,0,0-3.284-.861,2.461,2.461,0,0,0-.861,3.284c1.295,2.938,3.412,5.664,5.2,8.308,2.6,3.843,5.272,7.656,8.187,11.268a42.046,42.046,0,0,0,12.4,10.217c5.615,3.1,11.867,4.844,18.284,3.861,12.782-1.956,18.62-16.226,23.246-26.62,4.423-9.938,7.193-20.425,9.6-31.009,2.479-10.877,4.385-21.872,6.794-32.763a2.453,2.453,0,0,0-1.676-2.953c-12.037-3.544-24-7.358-35.938-11.226a2.446,2.446,0,0,0-2.952,1.676c-4.353,12.469-8.1,25.141-11.477,37.906q-1.806,6.825-3.484,13.682c-.737,3,3.891,4.279,4.628,1.276Z"/><path class="e" d="M251.264,181.924c4.974-17.523,13.852-49.24,18.892-66.989a5.871,5.871,0,0,1,7.27-4.043l32.215,9.236a5.877,5.877,0,0,1,4.035,7.259c-5.708,20.07-13.885,48.842-19.011,66.784a5.871,5.871,0,0,1-7.247,4.04c-9-2.54-23.116-6.492-32.1-9.028A5.873,5.873,0,0,1,251.264,181.924Z"/><path class="c" d="M253.578,182.562q6.084-21.434,12.089-42.889,2.958-10.511,5.929-21.018c.68-2.4,1.225-5.887,4.521-5.6a15.015,15.015,0,0,1,2.659.721l3.022.866,6.146,1.762,12.375,3.549,5.784,1.658c1.4.4,3.166.609,4.277,1.61a3.506,3.506,0,0,1,.981,3.528c-.451,1.8-1.018,3.581-1.525,5.366l-3.3,11.594q-6.692,23.529-13.4,47.054c-.395,1.386-.59,3.158-1.637,4.22a3.622,3.622,0,0,1-3.758.827c-3.753-1.029-7.492-2.11-11.238-3.163l-12.075-3.392-5.569-1.567c-1.4-.395-3.18-.593-4.293-1.593a3.505,3.505,0,0,1-.994-3.533c.758-3-3.87-4.274-4.628-1.276a8.4,8.4,0,0,0,5.568,10.159c3.9,1.278,7.941,2.242,11.9,3.353q6.5,1.827,13,3.654l5.781,1.627c2.075.586,4.115,1.079,6.246.39a8.381,8.381,0,0,0,4.912-4.1,30.483,30.483,0,0,0,1.733-5.45q1.664-5.831,3.325-11.663,3.733-13.106,7.46-26.212c2.37-8.331,4.95-16.634,7.115-25.021a8.4,8.4,0,0,0-5.382-10.107c-3.956-1.364-8.1-2.331-12.119-3.485l-13.268-3.8-6.443-1.847a8.991,8.991,0,0,0-6.171.146,8.227,8.227,0,0,0-4.419,4.432,43.117,43.117,0,0,0-1.47,4.9q-1.533,5.415-3.059,10.833-6.7,23.765-13.389,47.531-.659,2.331-1.32,4.661C248.105,184.262,252.735,185.533,253.578,182.562Z"/><path class="c" d="M281.851,112.161c7.848,2.247,16.559,4.75,23.737,6.806-.014.019-.674,2.345-1.277,4.468a3.109,3.109,0,0,1-3.818,2.149c-4.628-1.274-13.245-3.631-17.909-4.918a3.028,3.028,0,0,1-2.108-3.746C281.111,114.667,281.794,112.249,281.851,112.161Z"/><path class="c" d="M158.581,174.726c-.357,6.17-.636,12.345-.912,18.52q-.675,15.081-1.214,30.169-.665,18.381-1.135,36.769c-.316,12.577-.556,25.157-.655,37.739-.09,11.242-.083,22.489.208,33.729q.048,1.8.105,3.607c.1,3.081,4.9,3.094,4.8,0-.353-10.943-.4-21.9-.343-32.844.063-12.5.277-25.009.571-37.511q.436-18.6,1.1-37.2.546-15.628,1.225-31.251c.3-6.756.6-13.513.972-20.265q.04-.732.082-1.464c.179-3.086-4.622-3.076-4.8,0Z"/><path class="a" d="M314.431,173.887a5.841,5.841,0,0,0-.682-3.891,3.99,3.99,0,0,0-5.069-1.626,7.38,7.38,0,0,0-2.216,1.731c-1.421,1.866-2.165,2.964-4.093,5.6a26.8,26.8,0,0,0-3.672,5.925c-.443,1.167.175,3.208,1.38,4.446a4.354,4.354,0,0,0,4.783.907,8.527,8.527,0,0,0,2.925-2.661l2.992-3.728a19.282,19.282,0,0,0,3.182-4.919A8.111,8.111,0,0,0,314.431,173.887Z"/><path class="c" d="M316.831,173.887a7.6,7.6,0,0,0-2.177-6.524,6.469,6.469,0,0,0-5.944-1.58c-2.2.609-3.745,2.322-5.05,4.079-1,1.344-1.966,2.711-2.952,4.065a40.138,40.138,0,0,0-3.461,5.148,8.176,8.176,0,0,0-1.077,3.128,7.028,7.028,0,0,0,.7,3.315,6.939,6.939,0,0,0,4.687,4.023,7.052,7.052,0,0,0,6.6-2.013,60.3,60.3,0,0,0,4.925-6.012c1.642-2.087,3.217-4.308,3.656-6.991a2.473,2.473,0,0,0-1.676-2.952,2.419,2.419,0,0,0-2.952,1.676c-.546,3.336-3.3,5.974-5.336,8.51-.529.659-1.043,1.337-1.614,1.961a7.371,7.371,0,0,1-.71.7c-.342.283.179-.108-.188.138-.049.033-.525.306-.3.2a2.8,2.8,0,0,1-.522.153c.094-.02.406.008-.17.012a3.292,3.292,0,0,1-.544-.019c.072.012.22.032-.032-.033a2.187,2.187,0,0,1-1.054-.626,3.15,3.15,0,0,1-.661-1.434c-.111-.4.049.316-.023-.068-.017-.091-.117-.493-.032-.225s.029-.126-.005-.042c-.024.059.223-.506.248-.559a25.638,25.638,0,0,1,2.557-4.052q1.38-1.878,2.742-3.767.494-.685.993-1.367a13.8,13.8,0,0,1,1.053-1.349,3.791,3.791,0,0,1,.652-.517c.156-.1.33-.19.483-.3.517-.362-.206.017.329-.164.023-.008.392-.065.148-.04-.269.027.335.017.394.024-.389-.047.008.024.075.044.686.2-.141-.108.224.071a3.611,3.611,0,0,1,.426.248q.2.138.007,0l.181.169c.3.292.183.181.1.076a3.191,3.191,0,0,1,.293.47,4.315,4.315,0,0,1,.2,2.415,2.413,2.413,0,0,0,2.4,2.4A2.458,2.458,0,0,0,316.831,173.887Z"/><path class="c" d="M112.9,131.845a21.228,21.228,0,0,0,10.223,2.361c3.637-.024,7.341-.728,10.258-3a2.413,2.413,0,0,0,0-3.394,2.462,2.462,0,0,0-3.394,0c.71-.553.095-.085-.087.031-.208.134-.423.257-.642.372-.151.079-.9.393-.305.165-.294.112-.586.226-.885.322a15.23,15.23,0,0,1-5.279.705,15.86,15.86,0,0,1-5.036-.678c-.324-.1-.64-.213-.959-.323-.1-.035-.2-.089-.31-.12.591.173.17.076.014,0-.4-.186-.788-.382-1.176-.586a2.452,2.452,0,0,0-3.283.861,2.425,2.425,0,0,0,.861,3.283Z"/><path class="c" d="M122.036,107.588a48.658,48.658,0,0,1,1.145,5.241l-.085-.638a3.18,3.18,0,0,1,.019.723l.086-.638a1.792,1.792,0,0,1-.079.325l.241-.573a1.282,1.282,0,0,1-.114.209l.375-.486a1.093,1.093,0,0,1-.171.169l.485-.375a3.356,3.356,0,0,1-.415.22l.574-.242a3.054,3.054,0,0,1-.7.2l.638-.086a2.831,2.831,0,0,1-.657,0l.638.086c-.247-.035-.49-.095-.738-.128a2.649,2.649,0,0,0-1.849.241,2.4,2.4,0,0,0-.861,3.284,2.3,2.3,0,0,0,1.434,1.1c.538.073,1.061.21,1.608.234a5.085,5.085,0,0,0,2.336-.551,3.305,3.305,0,0,0,1.853-2.189,5.6,5.6,0,0,0-.025-2.39c-.285-1.689-.675-3.362-1.109-5.018a2.4,2.4,0,0,0-4.629,1.276Z"/><path class="c" d="M94.05,92.824c-.875,2.844-.3,9.386,5.083,9.942,7.121-.042,7.5-7.952,5.1-11.671C102.273,88.05,96.5,86.784,94.05,92.824Z"/><path class="c" d="M151.075,92.824c.875,2.844.305,9.386-5.083,9.942-7.121-.042-7.5-7.952-5.1-11.671C142.852,88.05,148.623,86.784,151.075,92.824Z"/></svg>